<svg xmlns="http://www.w3.org/2000/svg" width="925.77" height="202.42" viewBox="0 0 925.77 202.42">
  <defs>
    <style>
      .cls-1 {
        fill: #3699ff;
      }

      .cls-2 {
        fill: #fff;
      }
    </style>
  </defs>
  <g id="katman_2" data-name="katman 2">
    <g id="katman_1-2" data-name="katman 1">
      <g>
        <rect class="cls-1" width="157.95" height="163.16" rx="23.49"/>
        <g>
          <path class="cls-1" d="M191.56,21.23V152.45H171.2V21.23Z"/>
          <path class="cls-1" d="M302.82,152.45H282.46v-7c-6.37,4.12-14.8,7-25.91,7-46.28,0-46.48-48.13-46.48-48.13V56.19h20.36v48.13s-.21,27.76,26.12,27.76c25.5,0,25.91-26.53,25.91-27.76V56.19h20.36Z"/>
          <path class="cls-1" d="M349.51,126.53c3.9,3.29,9.66,5.55,18.09,5.55,11.73,0,18.31-4.31,21.8-9.87l17.28,10.7C400.3,143,389,152.24,367.81,152.45h-.41c-14.81-.21-24.68-4.73-31.47-10.7-8.84-7.81-12.34-18.51-13.78-26.53l-.2-1.44a72.48,72.48,0,0,1,0-18.92l.2-1.44c1.44-8,4.94-18.51,13.78-26.33,6.79-6.17,16.87-10.9,31.67-10.9,15,0,24.89,4.73,31.88,10.9,8.85,8,12.34,18.93,13.78,27.15a48.21,48.21,0,0,1,.62,10.9l-.62,9.46H342.51A24.08,24.08,0,0,0,349.51,126.53Zm36.4-44.22C382,78.82,376,76.55,367.6,76.55s-14.19,2.27-18.09,5.76a23.3,23.3,0,0,0-7,11.93H392.7A22.87,22.87,0,0,0,385.91,82.31Z"/>
          <path class="cls-1" d="M453.16,152.45H432.8V21.23h20.36V62.77c6.37-3.9,14.8-6.58,25.91-6.58,13.16,0,22.21,3.71,29,8.64,15.84,11.52,17.48,31.67,17.48,38.05v2.88c0,6.17-1.44,26.32-17.27,38.05-6.79,4.93-16,8.64-29.21,8.64-11.11,0-19.54-2.68-25.91-6.59Zm9.25-24.89c3.91,2.88,9.26,4.52,16.66,4.52,7.61,0,13.16-1.64,17.07-4.52,8.84-6.58,9.05-18.3,9.05-21.8v-2.88c0-3.7-.41-15.22-9.25-21.8-3.71-2.67-9.26-4.53-16.87-4.53-7.4,0-12.75,1.65-16.66,4.53-8.84,6.37-9.25,17.89-9.25,21.59V106C453.16,109.67,453.57,121.18,462.41,127.56Z"/>
          <path class="cls-1" d="M572.23,126.53c3.91,3.29,9.67,5.55,18.1,5.55,11.72,0,18.31-4.31,21.8-9.87l17.28,10.7C623,143,611.72,152.24,590.54,152.45h-.41c-14.81-.21-24.68-4.73-31.47-10.7-8.84-7.81-12.34-18.51-13.78-26.53l-.21-1.44a73.66,73.66,0,0,1,0-18.92l.21-1.44c1.44-8,4.94-18.51,13.78-26.33,6.79-6.17,16.86-10.9,31.67-10.9,15,0,24.89,4.73,31.88,10.9,8.84,8,12.34,18.93,13.78,27.15a48.21,48.21,0,0,1,.62,10.9L636,114.6H565.24A24.13,24.13,0,0,0,572.23,126.53Zm36.41-44.22c-3.91-3.49-9.88-5.76-18.31-5.76s-14.19,2.27-18.1,5.76a23.35,23.35,0,0,0-7,11.93h50.18A22.92,22.92,0,0,0,608.64,82.31Z"/>
          <path class="cls-1" d="M701.8,56.4h10.08V76.55H701.8c-25.71,0-25.92,26.54-26.12,27.77v48.13H655.52v-96h20.16v7C682.26,59.07,690.69,56.4,701.8,56.4Z"/>
          <path class="cls-1" d="M802.78,56.19h20.36V160.06s0,20.77-16.66,33.31c-6.58,5.14-16.25,9-30,9-24.06,0-35.58-11.72-41.13-22.42l-4.73-9,17.89-9.47,4.73,9c3.29,6,9.88,11.52,23.24,11.52,8.23,0,13.78-1.85,17.9-4.93,8.43-6.38,8.43-17.07,8.43-17.07V145.45c-11.11,6.79-23.24,7-25.92,7h-1c-4.53,0-20-1-31.47-11.73-7.61-7-14-18.1-14-36.4V56.19h20.37v48.13c0,10.69,3.08,17.28,7.4,21.39,6.58,6,15.22,6.37,17.69,6.37h1.64s12.34.83,19.75-8.43c3.08-3.7,5.14-8.84,5.55-16.25Z"/>
          <path class="cls-1" d="M898.41,118.92c-7.61-2.88-17.48-4.52-26.33-6.78-9.05-2.47-17.07-5.56-22-9.88-5.14-4.52-7.82-9.87-7.82-16.66,0,0-.41-8,6.17-16C853.57,63.39,863.65,56.4,884,56.4s30.23,6.79,35.38,12.75C926.17,77,925.76,85,925.76,85v4.93H905.4a11.26,11.26,0,0,0-6.58-10.28C895.74,78,891,76.76,884,76.76c-13.57,0-18.92,5.14-20.57,7.61a1.91,1.91,0,0,0,.42,2.67,18.57,18.57,0,0,0,5.76,2.88c7.6,2.88,17.68,4.73,26.32,7,9,2.46,17.07,5.55,22,9.87a20.86,20.86,0,0,1,7.81,16.66s.41,8-6.17,16c-5.14,6.17-15,13.16-35.58,13.16-20.36,0-30.44-7-35.58-13.16-6.58-8-6.17-16-6.17-16v-4.53h20.36v1a9.46,9.46,0,0,0,3.7,7.61c3.09,2.26,8.44,4.73,17.69,4.73,13.58,0,18.92-5.14,20.77-7.82a2.23,2.23,0,0,0-.61-2.67A24.9,24.9,0,0,0,898.41,118.92Z"/>
        </g>
        <path class="cls-2" d="M58.14,152.68h-22V10.88h22v44.9c6.89-4.23,16-7.12,28-7.12,14.23,0,24,4,31.34,9.34,17.12,12.44,18.9,34.23,18.9,41.12v3.11c0,6.67-1.56,28.45-18.67,41.12-7.34,5.33-17.34,9.33-31.57,9.33-12,0-21.11-2.89-28-7.11Zm10-26.89c4.22,3.11,10,4.89,18,4.89,8.23,0,14.23-1.78,18.45-4.89,9.56-7.11,9.78-19.78,9.78-23.56V99.12c0-4-.44-16.45-10-23.56-4-2.89-10-4.89-18.23-4.89-8,0-13.78,1.78-18,4.89-9.56,6.89-10,19.33-10,23.34v3.55C58.14,106.45,58.58,118.9,68.14,125.79Z"/>
      </g>
    </g>
  </g>
</svg>
