<svg width="506" height="637" viewBox="0 0 506 637" fill="none" xmlns="http://www.w3.org/2000/svg">
<g filter="url(#filter0_dd)">
<rect x="54" y="64" width="394" height="417" rx="37" fill="url(#paint0_linear)" shape-rendering="crispEdges"/>
</g>
<g filter="url(#filter1_dd)">
<path d="M251.849 252L289.853 290.004H272.118V325.474H231.581V290.004H213.846L251.849 252Z" fill="#3699FF"/>
<rect x="124" y="320.97" width="255.385" height="304.03" rx="7" fill="#F2F4F8"/>
<path d="M165.285 341.274V360.558H162.315V341.274H165.285Z" fill="#3699FF"/>
<path d="M181.51 360.558H178.541V359.53C177.612 360.135 176.383 360.558 174.762 360.558C168.013 360.558 167.984 353.485 167.984 353.485V346.412H170.953V353.485C170.953 353.485 170.922 357.565 174.762 357.565C178.481 357.565 178.541 353.666 178.541 353.485V346.412H181.51V360.558Z" fill="#3699FF"/>
<path d="M188.319 356.749C188.888 357.233 189.728 357.565 190.958 357.565C192.668 357.565 193.628 356.931 194.137 356.114L196.657 357.687C195.726 359.17 194.078 360.528 190.988 360.558H190.928C188.769 360.528 187.329 359.863 186.339 358.986C185.05 357.838 184.539 356.266 184.329 355.087L184.3 354.875C184.18 353.953 184.18 353.018 184.3 352.095L184.329 351.883C184.539 350.708 185.05 349.163 186.339 348.014C187.329 347.107 188.799 346.412 190.958 346.412C193.145 346.412 194.587 347.107 195.607 348.014C196.897 349.189 197.406 350.796 197.616 352.004C197.707 352.533 197.737 353.07 197.707 353.606L197.616 354.996H187.299C187.461 355.668 187.816 356.278 188.319 356.749ZM193.628 350.251C193.058 349.738 192.183 349.404 190.958 349.404C189.733 349.404 188.888 349.738 188.319 350.251C187.811 350.717 187.455 351.329 187.299 352.004H194.618C194.474 351.331 194.128 350.719 193.628 350.251Z" fill="#3699FF"/>
<path d="M203.435 360.558H200.466V341.274H203.435V347.379C204.364 346.805 205.593 346.412 207.214 346.412C209.133 346.412 210.453 346.957 211.443 347.681C213.753 349.374 213.992 352.336 213.992 353.273V353.697C213.992 354.603 213.782 357.565 211.474 359.288C210.483 360.013 209.14 360.558 207.214 360.558C205.593 360.558 204.364 360.164 203.435 359.59V360.558ZM204.784 356.9C205.354 357.324 206.134 357.565 207.214 357.565C208.323 357.565 209.133 357.324 209.703 356.9C210.992 355.933 211.023 354.211 211.023 353.697V353.273C211.023 352.73 210.963 351.037 209.674 350.07C209.133 349.677 208.323 349.404 207.214 349.404C206.134 349.404 205.354 349.646 204.784 350.07C203.495 351.006 203.435 352.699 203.435 353.242V353.732C203.435 354.271 203.495 355.963 204.784 356.9Z" fill="#3699FF"/>
<path d="M220.8 356.749C221.37 357.233 222.21 357.565 223.44 357.565C225.149 357.565 226.11 356.931 226.619 356.114L229.139 357.687C228.204 359.17 226.559 360.528 223.47 360.558H223.41C221.251 360.528 219.811 359.863 218.821 358.986C217.532 357.838 217.021 356.266 216.811 355.087L216.781 354.875C216.662 353.952 216.662 353.018 216.781 352.095L216.811 351.883C217.021 350.708 217.532 349.163 218.821 348.014C219.811 347.107 221.28 346.412 223.44 346.412C225.627 346.412 227.069 347.107 228.089 348.014C229.378 349.189 229.888 350.796 230.099 352.004C230.189 352.533 230.219 353.07 230.189 353.606L230.1 354.996H219.781C219.943 355.668 220.298 356.278 220.8 356.749ZM226.11 350.251C225.54 349.738 224.669 349.404 223.44 349.404C222.21 349.404 221.37 349.738 220.8 350.251C220.292 350.718 219.936 351.329 219.779 352.004H227.097C226.953 351.332 226.609 350.72 226.11 350.251Z" fill="#3699FF"/>
<path d="M239.696 346.442H241.166V349.404H239.696C235.947 349.404 235.916 353.304 235.887 353.485V360.558H232.947V346.45H235.887V347.478C236.847 346.835 238.076 346.442 239.696 346.442Z" fill="#3699FF"/>
<path d="M254.423 346.412H257.392V361.677C257.392 361.677 257.392 364.729 254.962 366.572C254.003 367.328 252.592 367.895 250.587 367.895C247.078 367.895 245.398 366.172 244.589 364.6L243.899 363.277L246.508 361.886L247.198 363.208C247.678 364.09 248.639 364.901 250.587 364.901C251.787 364.901 252.597 364.629 253.198 364.177C254.427 363.239 254.427 361.668 254.427 361.668V359.53C252.807 360.528 251.038 360.558 250.647 360.558H250.501C249.84 360.558 247.584 360.412 245.912 358.835C244.802 357.806 243.87 356.175 243.87 353.485V346.412H246.841V353.485C246.841 355.056 247.29 356.025 247.92 356.629C248.879 357.51 250.139 357.565 250.5 357.565H250.739C250.739 357.565 252.538 357.687 253.619 356.326C254.068 355.782 254.369 355.027 254.428 353.938L254.423 346.412Z" fill="#3699FF"/>
<path d="M268.368 355.63C267.259 355.207 265.819 354.966 264.529 354.634C263.209 354.271 262.039 353.817 261.32 353.182C260.571 352.518 260.18 351.731 260.18 350.734C260.18 350.734 260.12 349.558 261.08 348.382C261.829 347.47 263.299 346.442 266.267 346.442C269.235 346.442 270.676 347.44 271.427 348.316C272.417 349.47 272.357 350.645 272.357 350.645V351.37H269.388C269.389 351.052 269.299 350.74 269.129 350.472C268.959 350.204 268.715 349.991 268.428 349.859C267.979 349.617 267.288 349.434 266.267 349.434C264.288 349.434 263.508 350.19 263.267 350.553C263.246 350.583 263.23 350.616 263.221 350.652C263.213 350.688 263.211 350.725 263.217 350.762C263.223 350.798 263.236 350.833 263.255 350.865C263.274 350.896 263.299 350.923 263.328 350.945C263.582 351.134 263.866 351.278 264.168 351.368C265.277 351.792 266.747 352.064 268.007 352.397C269.319 352.759 270.496 353.213 271.215 353.848C271.578 354.141 271.87 354.514 272.067 354.939C272.265 355.363 272.363 355.827 272.354 356.296C272.354 356.296 272.414 357.472 271.454 358.647C270.705 359.554 269.267 360.582 266.266 360.582C263.296 360.582 261.826 359.553 261.077 358.647C260.117 357.472 260.177 356.296 260.177 356.296V355.63H263.146V355.777C263.144 355.993 263.191 356.207 263.285 356.401C263.379 356.595 263.516 356.764 263.686 356.896C264.136 357.228 264.917 357.591 266.266 357.591C268.246 357.591 269.025 356.835 269.295 356.442C269.325 356.376 269.333 356.301 269.317 356.23C269.301 356.159 269.262 356.095 269.206 356.049C268.946 355.874 268.664 355.733 268.368 355.63Z" fill="#3699FF"/>
<path d="M156.957 338.154H140.774C138.882 338.154 137.348 339.7 137.348 341.606V358.68C137.348 360.587 138.882 362.132 140.774 362.132H156.957C158.849 362.132 160.383 360.587 160.383 358.68V341.606C160.383 339.7 158.849 338.154 156.957 338.154Z" fill="#3699FF"/>
<path d="M145.827 360.592H142.619V339.753H145.827V346.352C146.832 345.73 148.161 345.305 149.911 345.305C151.986 345.305 153.411 345.893 154.481 346.678C156.978 348.506 157.237 351.708 157.237 352.721V353.178C157.237 354.158 157.01 357.359 154.515 359.221C153.444 360.004 151.986 360.592 149.911 360.592C148.161 360.592 146.832 360.167 145.827 359.547V360.592ZM147.286 356.64C147.901 357.097 148.744 357.359 149.911 357.359C151.111 357.359 151.986 357.097 152.601 356.64C153.996 355.595 154.028 353.733 154.028 353.178V352.721C154.028 352.133 153.963 350.303 152.569 349.258C151.986 348.834 151.111 348.54 149.911 348.54C148.744 348.54 147.901 348.801 147.286 349.258C145.891 350.271 145.827 352.099 145.827 352.689V353.21C145.827 353.798 145.891 355.628 147.286 356.64Z" fill="white"/>
<rect x="134.424" y="532.922" width="144.197" height="13.8985" rx="2" fill="#E6E6E6"/>
<rect x="134.424" y="552.033" width="116.4" height="13.8985" rx="2" fill="#E6E6E6"/>
<rect x="134.424" y="374.827" width="236.275" height="149.409" rx="6" fill="#E6E6E6"/>
<path d="M134.424 482.541C134.424 482.541 167.433 443.451 178.726 443.451C190.018 443.451 235.188 486.884 244.744 486.884C254.299 486.884 310.762 451.269 318.579 451.269C326.397 451.269 370.699 469.511 370.699 469.511V518.236C370.699 521.55 368.013 524.236 364.699 524.236H140.424C137.11 524.236 134.424 521.55 134.424 518.236V482.541Z" fill="#D2D2D2"/>
<circle cx="335.359" cy="414.071" r="16.4357" fill="#D2D2D2"/>
<path d="M154.781 589.559C154.486 588.875 154.059 588.255 153.526 587.733C152.993 587.21 152.364 586.795 151.674 586.509C150.958 586.212 150.19 586.06 149.415 586.061C148.328 586.061 147.267 586.359 146.345 586.922C146.124 587.056 145.915 587.204 145.716 587.365C145.518 587.204 145.308 587.056 145.088 586.922C144.166 586.359 143.105 586.061 142.018 586.061C141.235 586.061 140.476 586.211 139.759 586.509C139.067 586.796 138.442 587.208 137.906 587.733C137.373 588.254 136.946 588.874 136.652 589.559C136.345 590.272 136.188 591.028 136.188 591.807C136.188 592.541 136.338 593.307 136.636 594.085C136.885 594.736 137.243 595.411 137.699 596.092C138.423 597.171 139.417 598.296 140.652 599.436C142.699 601.326 144.726 602.632 144.812 602.685L145.335 603.02C145.566 603.168 145.864 603.168 146.096 603.02L146.619 602.685C146.705 602.63 148.729 601.326 150.778 599.436C152.013 598.296 153.008 597.171 153.732 596.092C154.188 595.411 154.548 594.736 154.795 594.085C155.092 593.307 155.242 592.541 155.242 591.807C155.245 591.028 155.088 590.272 154.781 589.559Z" fill="#D2D2D2"/>
<path d="M171.342 585.187C170.344 585.187 169.386 585.583 168.68 586.289C167.974 586.995 167.578 587.952 167.578 588.951V596.479C167.578 597.477 167.974 598.435 168.68 599.141C169.386 599.847 170.344 600.243 171.342 600.243V603.066C171.342 603.237 171.388 603.404 171.476 603.55C171.563 603.696 171.689 603.815 171.839 603.896C171.989 603.976 172.158 604.014 172.328 604.006C172.498 603.998 172.663 603.944 172.804 603.849L178.213 600.243H182.634C183.633 600.243 184.59 599.847 185.296 599.141C186.002 598.435 186.399 597.477 186.399 596.479V588.951C186.399 587.952 186.002 586.995 185.296 586.289C184.59 585.583 183.633 585.187 182.634 585.187H171.342Z" fill="#D2D2D2"/>
</g>
<g filter="url(#filter2_dd)">
<path d="M176.491 39.9951C170.156 39.9951 164.986 45.165 164.986 51.5C164.986 57.835 170.156 63.0049 176.491 63.0049C182.826 63.0049 187.995 57.835 187.995 51.5C187.995 45.165 182.826 39.9951 176.491 39.9951ZM210.996 51.5C210.996 46.7358 211.039 42.0147 210.772 37.2591C210.504 31.7354 209.244 26.8331 205.205 22.7939C201.157 18.746 196.264 17.4945 190.74 17.227C185.976 16.9594 181.255 17.0026 176.499 17.0026C171.735 17.0026 167.014 16.9594 162.259 17.227C156.735 17.4945 151.833 18.7546 147.794 22.7939C143.746 26.8417 142.495 31.7354 142.227 37.2591C141.959 42.0233 142.003 46.7444 142.003 51.5C142.003 56.2556 141.959 60.9853 142.227 65.7409C142.495 71.2646 143.755 76.1669 147.794 80.2061C151.842 84.254 156.735 85.5055 162.259 85.773C167.023 86.0406 171.744 85.9974 176.499 85.9974C181.263 85.9974 185.984 86.0406 190.74 85.773C196.264 85.5055 201.166 84.2454 205.205 80.2061C209.253 76.1583 210.504 71.2646 210.772 65.7409C211.048 60.9853 210.996 56.2642 210.996 51.5ZM176.491 69.2018C166.695 69.2018 158.789 61.296 158.789 51.5C158.789 41.704 166.695 33.7982 176.491 33.7982C186.287 33.7982 194.192 41.704 194.192 51.5C194.192 61.296 186.287 69.2018 176.491 69.2018ZM194.917 37.2073C192.63 37.2073 190.783 35.3603 190.783 33.0732C190.783 30.786 192.63 28.939 194.917 28.939C197.204 28.939 199.051 30.786 199.051 33.0732C199.052 33.6163 198.946 34.1542 198.738 34.6561C198.53 35.1579 198.226 35.614 197.842 35.998C197.458 36.382 197.002 36.6865 196.5 36.894C195.998 37.1016 195.46 37.208 194.917 37.2073Z" fill="url(#paint1_linear)"/>
</g>
<g filter="url(#filter3_dd)">
<path d="M322.599 12C315.62 12 310 17.6197 310 24.599V68.401C310 75.3802 315.62 80.9999 322.599 80.9999H346.339V54.0253H339.206V44.3135H346.339V36.0163C346.339 29.4975 350.554 23.5122 360.262 23.5122C364.193 23.5122 367.1 23.8896 367.1 23.8896L366.871 32.9588C366.871 32.9588 363.907 32.9308 360.672 32.9308C357.171 32.9308 356.609 34.5438 356.609 37.2217V44.3136H367.149L366.69 54.0253H356.609V81H366.401C373.38 81 379 75.3803 379 68.401V24.599C379 17.6198 373.38 12.0001 366.401 12.0001H322.599L322.599 12Z" fill="#1778F2"/>
</g>
<g filter="url(#filter4_dd)">
<path d="M482.667 156.652C481.014 157.401 479.228 157.91 477.31 158.18C479.317 156.982 480.689 155.23 481.427 152.924C479.509 154.062 477.531 154.826 475.495 155.215C473.694 153.238 471.437 152.25 468.721 152.25C466.154 152.25 463.962 153.171 462.147 155.013C460.332 156.854 459.424 159.078 459.424 161.684C459.424 162.552 459.498 163.271 459.646 163.84C455.839 163.63 452.267 162.657 448.932 160.92C445.597 159.183 442.764 156.862 440.432 153.957C439.576 155.454 439.148 157.042 439.148 158.719C439.148 162.133 440.491 164.753 443.177 166.58C441.79 166.55 440.314 166.161 438.75 165.412V165.502C438.75 167.748 439.488 169.747 440.964 171.499C442.439 173.251 444.254 174.337 446.409 174.756C445.553 174.995 444.8 175.115 444.151 175.115C443.767 175.115 443.192 175.055 442.424 174.936C443.044 176.822 444.144 178.38 445.723 179.607C447.302 180.835 449.095 181.464 451.102 181.494C447.678 184.189 443.826 185.537 439.547 185.537C438.78 185.537 438.042 185.492 437.333 185.402C441.701 188.217 446.453 189.625 451.589 189.625C454.894 189.625 457.993 189.093 460.885 188.03C463.778 186.967 466.257 185.545 468.323 183.763C470.389 181.981 472.167 179.929 473.658 177.608C475.148 175.287 476.255 172.862 476.978 170.331C477.701 167.8 478.062 165.277 478.062 162.762C478.062 162.223 478.048 161.818 478.018 161.549C479.878 160.201 481.427 158.569 482.667 156.652ZM494 147.938V191.062C494 194.626 492.753 197.674 490.259 200.204C487.765 202.735 484.762 204 481.25 204H438.75C435.238 204 432.235 202.735 429.741 200.204C427.247 197.674 426 194.626 426 191.062V147.938C426 144.374 427.247 141.326 429.741 138.796C432.235 136.265 435.238 135 438.75 135H481.25C484.762 135 487.765 136.265 490.259 138.796C492.753 141.326 494 144.374 494 147.938Z" fill="#00ACEE"/>
</g>
<g filter="url(#filter5_dd)">
<path d="M25.5214 118C18.0857 118 12 124.086 12 131.521L12 173.481C12 180.917 18.0856 187 25.5214 187H67.4808C74.9166 187 81 180.917 81 173.481V131.521C81 124.086 74.9166 118 67.4808 118H25.5214ZM28.9223 129.386C32.4875 129.386 34.6836 131.727 34.7514 134.804C34.7514 137.812 32.4874 140.219 28.8533 140.219H28.7864C25.289 140.219 23.0285 137.812 23.0285 134.804C23.0285 131.727 25.3574 129.386 28.9222 129.386H28.9223ZM59.6462 143.766C66.5029 143.766 71.643 148.248 71.643 157.878V175.857H61.2227V159.084C61.2227 154.869 59.7146 151.993 55.9435 151.993C53.0647 151.993 51.3487 153.931 50.5953 155.804C50.3201 156.474 50.2524 157.409 50.2524 158.346V175.857H39.8321C39.8321 175.857 39.9689 147.443 39.8321 144.501H50.2546V148.942C51.6393 146.805 54.1163 143.766 59.6462 143.766V143.766ZM23.6431 144.504H34.0634L34.0634 175.857H23.6431L23.6431 144.504Z" fill="#0072B1"/>
</g>
<path d="M229.408 168.257C236.729 161.943 246.067 158.457 255.734 158.427C275.437 158.427 291.794 173.076 293.574 191.967C305.235 193.615 314.332 203.379 314.332 215.363C314.332 228.518 303.36 239 290.065 239H224.83C209.646 239 197.135 227.031 197.135 212.03C197.135 199.116 206.408 188.422 218.684 185.712C219.732 179.39 223.797 173.091 229.408 168.257Z" fill="#3699FF"/>
<path d="M250.155 222.648H243.095V176.688H250.155V191.241C252.367 189.87 255.291 188.934 259.142 188.934C263.709 188.934 266.845 190.23 269.201 191.961C274.695 195.993 275.267 203.055 275.267 205.289V206.297C275.267 208.458 274.766 215.518 269.274 219.624C266.919 221.352 263.709 222.648 259.142 222.648C255.291 222.648 252.367 221.712 250.155 220.344V222.648ZM253.365 213.933C254.719 214.941 256.574 215.518 259.142 215.518C261.783 215.518 263.709 214.941 265.064 213.933C268.132 211.628 268.202 207.522 268.202 206.297V205.289C268.202 203.992 268.061 199.957 264.993 197.652C263.709 196.716 261.783 196.067 259.142 196.067C256.574 196.067 254.719 196.644 253.365 197.652C250.297 199.886 250.155 203.918 250.155 205.217V206.368C250.155 207.664 250.297 211.7 253.365 213.933Z" fill="white"/>
<g filter="url(#filter6_d)">
<path d="M282.593 135.569C282.593 135.203 282.739 134.852 282.998 134.593C283.257 134.334 283.608 134.188 283.975 134.188H295.025C295.391 134.188 295.742 134.334 296.001 134.593C296.26 134.852 296.406 135.203 296.406 135.569C296.406 135.936 296.26 136.287 296.001 136.546C295.742 136.805 295.391 136.951 295.025 136.951H283.975C283.608 136.951 283.257 136.805 282.998 136.546C282.739 136.287 282.593 135.936 282.593 135.569Z" fill="url(#paint2_linear)"/>
<path d="M303.174 139.517C303.433 139.259 303.784 139.114 304.149 139.114C304.515 139.114 304.865 139.259 305.124 139.517L309.031 143.423C309.163 143.551 309.268 143.703 309.34 143.872C309.413 144.04 309.451 144.221 309.452 144.405C309.454 144.588 309.419 144.77 309.349 144.94C309.28 145.11 309.177 145.264 309.048 145.394C308.918 145.523 308.764 145.626 308.594 145.695C308.424 145.765 308.242 145.8 308.059 145.798C307.876 145.796 307.694 145.758 307.526 145.686C307.357 145.614 307.205 145.508 307.077 145.376L303.174 141.47C302.915 141.211 302.77 140.86 302.77 140.494C302.77 140.127 302.915 139.776 303.174 139.517Z" fill="url(#paint3_linear)"/>
<path d="M308.837 159.051C308.837 164.179 306.8 169.098 303.173 172.725C299.547 176.351 294.628 178.388 289.5 178.388C284.371 178.388 279.452 176.351 275.826 172.725C272.199 169.098 270.162 164.179 270.162 159.051C270.162 153.922 272.199 149.004 275.826 145.377C279.452 141.751 284.371 139.713 289.5 139.713C294.628 139.713 299.547 141.751 303.173 145.377C306.8 149.004 308.837 153.922 308.837 159.051ZM288.118 146.619V160.432C288.118 160.798 288.264 161.15 288.523 161.409C288.782 161.668 289.133 161.813 289.5 161.813C289.866 161.813 290.217 161.668 290.476 161.409C290.735 161.15 290.881 160.798 290.881 160.432V146.619C290.881 146.253 290.735 145.902 290.476 145.643C290.217 145.384 289.866 145.238 289.5 145.238C289.133 145.238 288.782 145.384 288.523 145.643C288.264 145.902 288.118 146.253 288.118 146.619Z" fill="url(#paint4_linear)"/>
</g>
<path d="M197.406 196.925C196.521 196.925 195.813 197.609 195.813 198.463C195.813 199.317 196.521 200 197.406 200C198.292 200 199 199.317 199 198.463C199 197.609 198.292 196.925 197.406 196.925Z" fill="white"/>
<path d="M196.313 198.463C196.313 197.902 196.78 197.425 197.406 197.425V196.425C196.262 196.425 195.313 197.316 195.313 198.463H196.313ZM197.406 197.425C198.033 197.425 198.5 197.902 198.5 198.463H199.5C199.5 197.316 198.551 196.425 197.406 196.425V197.425ZM198.5 198.463C198.5 199.024 198.033 199.5 197.406 199.5V200.5C198.551 200.5 199.5 199.61 199.5 198.463H198.5ZM197.406 199.5C196.78 199.5 196.313 199.024 196.313 198.463H195.313C195.313 199.61 196.262 200.5 197.406 200.5V199.5ZM195.813 197.963H58.4627V198.963H195.813V197.963ZM58.4627 197.963C52.4082 197.963 47.5 193.055 47.5 187H46.5C46.5 193.607 51.8559 198.963 58.4627 198.963V197.963Z" fill="black"/>
<path d="M197.362 196.824C196.452 196.824 195.724 197.53 195.724 198.412C195.724 199.294 196.452 200 197.362 200C198.272 200 199 199.294 199 198.412C199 197.53 198.272 196.824 197.362 196.824Z" fill="white"/>
<path d="M196.224 198.412C196.224 197.82 196.714 197.324 197.362 197.324V196.324C196.191 196.324 195.224 197.239 195.224 198.412H196.224ZM197.362 197.324C198.011 197.324 198.5 197.82 198.5 198.412H199.5C199.5 197.239 198.534 196.324 197.362 196.324V197.324ZM198.5 198.412C198.5 199.004 198.011 199.5 197.362 199.5V200.5C198.534 200.5 199.5 199.585 199.5 198.412H198.5ZM197.362 199.5C196.714 199.5 196.224 199.004 196.224 198.412H195.224C195.224 199.585 196.191 200.5 197.362 200.5V199.5ZM176.5 178.688V86H175.5V178.688H176.5ZM195.724 197.912C185.107 197.912 176.5 189.305 176.5 178.688H175.5C175.5 189.857 184.555 198.912 195.724 198.912V197.912Z" fill="black"/>
<path d="M314.569 196.831C313.697 196.831 313 197.535 313 198.416C313 199.296 313.697 200 314.569 200C315.44 200 316.137 199.296 316.137 198.416C316.137 197.535 315.44 196.831 314.569 196.831Z" fill="white"/>
<path d="M313.5 198.416C313.5 197.807 313.978 197.331 314.569 197.331V196.331C313.416 196.331 312.5 197.264 312.5 198.416H313.5ZM314.569 197.331C315.159 197.331 315.637 197.807 315.637 198.416H316.637C316.637 197.264 315.721 196.331 314.569 196.331V197.331ZM315.637 198.416C315.637 199.024 315.159 199.5 314.569 199.5V200.5C315.721 200.5 316.637 199.567 316.637 198.416H315.637ZM314.569 199.5C313.978 199.5 313.5 199.024 313.5 198.416H312.5C312.5 199.567 313.416 200.5 314.569 200.5V199.5ZM316.137 198.916H324V197.916H316.137V198.916ZM344.5 178.416V81H343.5V178.416H344.5ZM324 198.916C335.322 198.916 344.5 189.737 344.5 178.416H343.5C343.5 189.185 334.77 197.916 324 197.916V198.916Z" fill="black"/>
<path d="M314.594 196.89C313.708 196.89 313 197.581 313 198.445C313 199.309 313.708 200 314.594 200C315.479 200 316.187 199.309 316.187 198.445C316.187 197.581 315.479 196.89 314.594 196.89Z" fill="white"/>
<path d="M313.5 198.445C313.5 197.869 313.973 197.39 314.594 197.39V196.39C313.444 196.39 312.5 197.294 312.5 198.445H313.5ZM314.594 197.39C315.215 197.39 315.687 197.869 315.687 198.445H316.687C316.687 197.294 315.743 196.39 314.594 196.39V197.39ZM315.687 198.445C315.687 199.021 315.215 199.5 314.594 199.5V200.5C315.743 200.5 316.687 199.597 316.687 198.445H315.687ZM314.594 199.5C313.973 199.5 313.5 199.021 313.5 198.445H312.5C312.5 199.597 313.444 200.5 314.594 200.5V199.5ZM316.187 198.945H356.074V197.945H316.187V198.945ZM384.519 170.5H426V169.5H384.519V170.5ZM370.797 184.223C370.797 176.644 376.941 170.5 384.519 170.5V169.5C376.388 169.5 369.797 176.092 369.797 184.223H370.797ZM356.074 198.945C364.205 198.945 370.797 192.354 370.797 184.223H369.797C369.797 191.801 363.653 197.945 356.074 197.945V198.945Z" fill="black"/>
<defs>
<filter id="filter0_dd" x="32" y="42" width="438" height="461" filterUnits="userSpaceOnUse" color-interpolation-filters="sRGB">
<feFlood flood-opacity="0" result="BackgroundImageFix"/>
<feColorMatrix in="SourceAlpha" type="matrix" values="0 0 0 0 0 0 0 0 0 0 0 0 0 0 0 0 0 0 127 0" result="hardAlpha"/>
<feOffset dx="-6" dy="-6"/>
<feGaussianBlur stdDeviation="8"/>
<feComposite in2="hardAlpha" operator="out"/>
<feColorMatrix type="matrix" values="0 0 0 0 1 0 0 0 0 1 0 0 0 0 1 0 0 0 1 0"/>
<feBlend mode="normal" in2="BackgroundImageFix" result="effect1_dropShadow"/>
<feColorMatrix in="SourceAlpha" type="matrix" values="0 0 0 0 0 0 0 0 0 0 0 0 0 0 0 0 0 0 127 0" result="hardAlpha"/>
<feOffset dx="6" dy="6"/>
<feGaussianBlur stdDeviation="8"/>
<feComposite in2="hardAlpha" operator="out"/>
<feColorMatrix type="matrix" values="0 0 0 0 0.682353 0 0 0 0 0.682353 0 0 0 0 0.752941 0 0 0 0.4 0"/>
<feBlend mode="normal" in2="effect1_dropShadow" result="effect2_dropShadow"/>
<feBlend mode="normal" in="SourceGraphic" in2="effect2_dropShadow" result="shape"/>
</filter>
<filter id="filter1_dd" x="112" y="240" width="279.385" height="397" filterUnits="userSpaceOnUse" color-interpolation-filters="sRGB">
<feFlood flood-opacity="0" result="BackgroundImageFix"/>
<feColorMatrix in="SourceAlpha" type="matrix" values="0 0 0 0 0 0 0 0 0 0 0 0 0 0 0 0 0 0 127 0" result="hardAlpha"/>
<feOffset dx="-4" dy="-4"/>
<feGaussianBlur stdDeviation="4"/>
<feComposite in2="hardAlpha" operator="out"/>
<feColorMatrix type="matrix" values="0 0 0 0 1 0 0 0 0 1 0 0 0 0 1 0 0 0 1 0"/>
<feBlend mode="normal" in2="BackgroundImageFix" result="effect1_dropShadow"/>
<feColorMatrix in="SourceAlpha" type="matrix" values="0 0 0 0 0 0 0 0 0 0 0 0 0 0 0 0 0 0 127 0" result="hardAlpha"/>
<feOffset dx="4" dy="4"/>
<feGaussianBlur stdDeviation="4"/>
<feComposite in2="hardAlpha" operator="out"/>
<feColorMatrix type="matrix" values="0 0 0 0 0.682353 0 0 0 0 0.682353 0 0 0 0 0.752941 0 0 0 0.4 0"/>
<feBlend mode="normal" in2="effect1_dropShadow" result="effect2_dropShadow"/>
<feBlend mode="normal" in="SourceGraphic" in2="effect2_dropShadow" result="shape"/>
</filter>
<filter id="filter2_dd" x="130" y="5" width="93" height="93" filterUnits="userSpaceOnUse" color-interpolation-filters="sRGB">
<feFlood flood-opacity="0" result="BackgroundImageFix"/>
<feColorMatrix in="SourceAlpha" type="matrix" values="0 0 0 0 0 0 0 0 0 0 0 0 0 0 0 0 0 0 127 0" result="hardAlpha"/>
<feOffset dx="-4" dy="-4"/>
<feGaussianBlur stdDeviation="4"/>
<feComposite in2="hardAlpha" operator="out"/>
<feColorMatrix type="matrix" values="0 0 0 0 1 0 0 0 0 1 0 0 0 0 1 0 0 0 1 0"/>
<feBlend mode="normal" in2="BackgroundImageFix" result="effect1_dropShadow"/>
<feColorMatrix in="SourceAlpha" type="matrix" values="0 0 0 0 0 0 0 0 0 0 0 0 0 0 0 0 0 0 127 0" result="hardAlpha"/>
<feOffset dx="4" dy="4"/>
<feGaussianBlur stdDeviation="4"/>
<feComposite in2="hardAlpha" operator="out"/>
<feColorMatrix type="matrix" values="0 0 0 0 0.682353 0 0 0 0 0.682353 0 0 0 0 0.752941 0 0 0 0.4 0"/>
<feBlend mode="normal" in2="effect1_dropShadow" result="effect2_dropShadow"/>
<feBlend mode="normal" in="SourceGraphic" in2="effect2_dropShadow" result="shape"/>
</filter>
<filter id="filter3_dd" x="298" y="0" width="93" height="93" filterUnits="userSpaceOnUse" color-interpolation-filters="sRGB">
<feFlood flood-opacity="0" result="BackgroundImageFix"/>
<feColorMatrix in="SourceAlpha" type="matrix" values="0 0 0 0 0 0 0 0 0 0 0 0 0 0 0 0 0 0 127 0" result="hardAlpha"/>
<feOffset dx="-4" dy="-4"/>
<feGaussianBlur stdDeviation="4"/>
<feComposite in2="hardAlpha" operator="out"/>
<feColorMatrix type="matrix" values="0 0 0 0 1 0 0 0 0 1 0 0 0 0 1 0 0 0 1 0"/>
<feBlend mode="normal" in2="BackgroundImageFix" result="effect1_dropShadow"/>
<feColorMatrix in="SourceAlpha" type="matrix" values="0 0 0 0 0 0 0 0 0 0 0 0 0 0 0 0 0 0 127 0" result="hardAlpha"/>
<feOffset dx="4" dy="4"/>
<feGaussianBlur stdDeviation="4"/>
<feComposite in2="hardAlpha" operator="out"/>
<feColorMatrix type="matrix" values="0 0 0 0 0.682353 0 0 0 0 0.682353 0 0 0 0 0.752941 0 0 0 0.4 0"/>
<feBlend mode="normal" in2="effect1_dropShadow" result="effect2_dropShadow"/>
<feBlend mode="normal" in="SourceGraphic" in2="effect2_dropShadow" result="shape"/>
</filter>
<filter id="filter4_dd" x="414" y="123" width="92" height="93" filterUnits="userSpaceOnUse" color-interpolation-filters="sRGB">
<feFlood flood-opacity="0" result="BackgroundImageFix"/>
<feColorMatrix in="SourceAlpha" type="matrix" values="0 0 0 0 0 0 0 0 0 0 0 0 0 0 0 0 0 0 127 0" result="hardAlpha"/>
<feOffset dx="-4" dy="-4"/>
<feGaussianBlur stdDeviation="4"/>
<feComposite in2="hardAlpha" operator="out"/>
<feColorMatrix type="matrix" values="0 0 0 0 1 0 0 0 0 1 0 0 0 0 1 0 0 0 1 0"/>
<feBlend mode="normal" in2="BackgroundImageFix" result="effect1_dropShadow"/>
<feColorMatrix in="SourceAlpha" type="matrix" values="0 0 0 0 0 0 0 0 0 0 0 0 0 0 0 0 0 0 127 0" result="hardAlpha"/>
<feOffset dx="4" dy="4"/>
<feGaussianBlur stdDeviation="4"/>
<feComposite in2="hardAlpha" operator="out"/>
<feColorMatrix type="matrix" values="0 0 0 0 0.682353 0 0 0 0 0.682353 0 0 0 0 0.752941 0 0 0 0.4 0"/>
<feBlend mode="normal" in2="effect1_dropShadow" result="effect2_dropShadow"/>
<feBlend mode="normal" in="SourceGraphic" in2="effect2_dropShadow" result="shape"/>
</filter>
<filter id="filter5_dd" x="0" y="106" width="93" height="93" filterUnits="userSpaceOnUse" color-interpolation-filters="sRGB">
<feFlood flood-opacity="0" result="BackgroundImageFix"/>
<feColorMatrix in="SourceAlpha" type="matrix" values="0 0 0 0 0 0 0 0 0 0 0 0 0 0 0 0 0 0 127 0" result="hardAlpha"/>
<feOffset dx="-4" dy="-4"/>
<feGaussianBlur stdDeviation="4"/>
<feComposite in2="hardAlpha" operator="out"/>
<feColorMatrix type="matrix" values="0 0 0 0 1 0 0 0 0 1 0 0 0 0 1 0 0 0 1 0"/>
<feBlend mode="normal" in2="BackgroundImageFix" result="effect1_dropShadow"/>
<feColorMatrix in="SourceAlpha" type="matrix" values="0 0 0 0 0 0 0 0 0 0 0 0 0 0 0 0 0 0 127 0" result="hardAlpha"/>
<feOffset dx="4" dy="4"/>
<feGaussianBlur stdDeviation="4"/>
<feComposite in2="hardAlpha" operator="out"/>
<feColorMatrix type="matrix" values="0 0 0 0 0.682353 0 0 0 0 0.682353 0 0 0 0 0.752941 0 0 0 0.4 0"/>
<feBlend mode="normal" in2="effect1_dropShadow" result="effect2_dropShadow"/>
<feBlend mode="normal" in="SourceGraphic" in2="effect2_dropShadow" result="shape"/>
</filter>
<filter id="filter6_d" x="253.162" y="131.188" width="63.2903" height="68.2002" filterUnits="userSpaceOnUse" color-interpolation-filters="sRGB">
<feFlood flood-opacity="0" result="BackgroundImageFix"/>
<feColorMatrix in="SourceAlpha" type="matrix" values="0 0 0 0 0 0 0 0 0 0 0 0 0 0 0 0 0 0 127 0" result="hardAlpha"/>
<feOffset dx="-5" dy="9"/>
<feGaussianBlur stdDeviation="6"/>
<feComposite in2="hardAlpha" operator="out"/>
<feColorMatrix type="matrix" values="0 0 0 0 0 0 0 0 0 0 0 0 0 0 0 0 0 0 0.25 0"/>
<feBlend mode="normal" in2="BackgroundImageFix" result="effect1_dropShadow"/>
<feBlend mode="normal" in="SourceGraphic" in2="effect1_dropShadow" result="shape"/>
</filter>
<linearGradient id="paint0_linear" x1="54" y1="80.5852" x2="410.802" y2="387.416" gradientUnits="userSpaceOnUse">
<stop stop-color="#E3E5E9" stop-opacity="0.27"/>
<stop offset="0.0001" stop-color="#EEF0F4"/>
<stop offset="1" stop-color="#F0F2F6"/>
</linearGradient>
<linearGradient id="paint1_linear" x1="146.357" y1="20.7953" x2="205.846" y2="87.2349" gradientUnits="userSpaceOnUse">
<stop stop-color="#515BD4"/>
<stop offset="0.118324" stop-color="#8134AF"/>
<stop offset="0.343222" stop-color="#DD2A7B"/>
<stop offset="0.932528" stop-color="#FEDA77"/>
<stop offset="0.9375" stop-color="#FF5852"/>
</linearGradient>
<linearGradient id="paint2_linear" x1="282.778" y1="134.409" x2="293.373" y2="141.725" gradientUnits="userSpaceOnUse">
<stop stop-color="#3699FF"/>
<stop offset="1" stop-color="#3A36FF"/>
</linearGradient>
<linearGradient id="paint3_linear" x1="302.859" y1="139.647" x2="310.288" y2="140.673" gradientUnits="userSpaceOnUse">
<stop stop-color="#3699FF"/>
<stop offset="1" stop-color="#3A36FF"/>
</linearGradient>
<linearGradient id="paint4_linear" x1="270.679" y1="142.799" x2="313.671" y2="148.736" gradientUnits="userSpaceOnUse">
<stop stop-color="#3699FF"/>
<stop offset="1" stop-color="#3A36FF"/>
</linearGradient>
</defs>
</svg>
