<svg width="25" height="20" viewBox="0 0 25 20" fill="none" xmlns="http://www.w3.org/2000/svg">
<path d="M22.9167 0H2.08333C0.93274 0 0 0.746192 0 1.66667C0 2.58714 0.93274 3.33333 2.08333 3.33333H22.9167C24.0673 3.33333 25 2.58714 25 1.66667C25 0.746192 24.0673 0 22.9167 0Z" fill="#3699FF"/>
<path d="M22.9167 8H2.08333C0.93274 8 0 8.74619 0 9.66667C0 10.5871 0.93274 11.3333 2.08333 11.3333H22.9167C24.0673 11.3333 25 10.5871 25 9.66667C25 8.74619 24.0673 8 22.9167 8Z" fill="#3699FF"/>
<path d="M22.9167 16.6667H2.08333C0.93274 16.6667 0 17.4129 0 18.3334C0 19.2538 0.93274 20 2.08333 20H22.9167C24.0673 20 25 19.2538 25 18.3334C25 17.4129 24.0673 16.6667 22.9167 16.6667Z" fill="#3699FF"/>
</svg>
